<svg width="155" height="30" xmlns="http://www.w3.org/2000/svg" version="1.2" viewBox="0,0,155,30">
    <defs>
        <linearGradient id="gradient-344716592" x1="0" x2="0" y1="1" y2="0">
            <stop offset="10%" stop-color="#9be9a8"/>
            <stop offset="33%" stop-color="#40c463"/>
            <stop offset="66%" stop-color="#30a14e"/>
            <stop offset="90%" stop-color="#216e39"/>
        </linearGradient>
        <mask id="sparkline-344716592" x="0" y="0" width="155" height="28">
            <polyline transform="translate(0, 28) scale(1,-1)"
                      points="0,1 3,1 6,1 9,1 12,1 15,1 18,1 21,1 24,1 27,1 30,1 33,1 36,1 39,1 42,1 45,1 48,1 51,1 54,1 57,1 60,1 63,1 66,1 69,1 72,1 75,1 78,1 81,1 84,1 87,1 90,1 93,1 96,1 99,1 102,1 105,1 108,1 111,1 114,1 117,1 120,1 123,1 126,1 129,1 132,1 135,1 138,1 141,1 144,1 147,1 150,1 153,1 "
                      stroke="#8cc665" stroke-width="2">
            </polyline>
        </mask>
    </defs>

    <g transform="translate(0, 0)">
        <rect x="0" y="-2" width="155" height="30" style="stroke: none; fill: url(#gradient-344716592); mask: url(#sparkline-344716592)"/>
    </g>
</svg>